<?xml version="1.0" encoding="utf-8"?>
<!-- Generator: Adobe Illustrator 26.2.1, SVG Export Plug-In . SVG Version: 6.00 Build 0)  -->
<svg version="1.1" id="Layer_1" xmlns="http://www.w3.org/2000/svg" xmlns:xlink="http://www.w3.org/1999/xlink" x="0px" y="0px"
	 viewBox="0 0 4500 4500" style="enable-background:new 0 0 4500 4500;" xml:space="preserve">
<style type="text/css">
	.st0{fill:#FFBE33;}
	.st1{fill:#F7941D;}
	.st2{fill:#FFFFFF;}
	.st3{font-family:'Comfortaa-Bold';}
	.st4{font-size:600px;}
	.st5{font-size:350px;}
	.st6{fill:none;}
</style>
<g>
	<g>
		<g>
			<path class="st0" d="M2901,2364.9c2.7-10,4.3-20.5,5.4-31.2C2905.4,2340.7,2903.8,2351.3,2901,2364.9z"/>
			<path class="st0" d="M610,2338.1c0,0,0,0.4,0.1,1.2c1.7,6.8,3.8,13.7,6.1,20.8c4.5,13.7,7.2,25.9,8.1,36.7
				c33.1,106.8,135.3,329.9,427.2,414.2c21.5,5.5,43.2,10.6,64.8,15.6c2.2,0.6,4.5,1,6.6,1.4c316.3,71.3,632.5,89.6,948.9,54.1
				c-81.2-44.7-157.1-97.9-226.7-158.2c-27.5,0.9-55.2,1.2-83.3,1c-241.6,2.6-492.1-38.5-737-115.4
				c-80.7-25.4-148.3-70.4-181.4-152.5c-21.5-53.5,3.9-85.6,61-80.1c26.2,2.5,51.8,11.3,77.9,15c204.4,28.3,408.1,67.8,613.7,81.4
				c9.3,0.6,18.4,1.2,27.6,1.6c-34.6-50.2-65.3-102.8-92.5-157.7c-171.6-11-343.3-34-515.2-68.2c-82.5-16.6-163.1-43.8-245.8-57.5
				C646.5,2170.9,583.2,2227.4,610,2338.1z"/>
			<path class="st0" d="M665.3,1899.5c24.4,97.6,79.2,166,184.3,190.4c206.6,48,414.9,79.5,625.1,95.8
				c-31.8-87.2-54.5-178.7-67.1-273.4c-7.8-6.5-16-13.6-25-21.1c-73.7-62.2-113.2-65.5-194.4-14.2c-147.9,93.7-120,94.4-248.1-30.6
				c-24-23.6-46.8-48.9-72.7-70.1c-46.7-38.5-99.3-51.2-153.2-17.1C662.6,1792.1,651.7,1844.7,665.3,1899.5z"/>
		</g>
		<path class="st1" d="M1116.2,2826.6c-21.5-5.1-43.2-10.1-64.8-15.6C1072,2817.1,1093.7,2822.3,1116.2,2826.6z"/>
		<path class="st1" d="M610.1,2339.3c0.9,5.1,4.6,26.3,14.2,57.5c-0.9-10.8-3.6-23-8.1-36.7C613.9,2353,611.8,2346.1,610.1,2339.3z"
			/>
		<path class="st1" d="M2887.9,2416.9c6.1-20,10.3-37.7,13.2-52c-1.3,5.2-2.9,10.3-4.9,15.2
			C2890.5,2394.2,2887.9,2406.4,2887.9,2416.9z"/>
		<path class="st1" d="M2415.3,2823c24.3-4.9,47.3-10.7,69.2-17.2c-23,5.9-46,11.7-69,16.9L2415.3,2823z"/>
		<path class="st0" d="M830.1,1641.8c187.7,37.2,376.5,61.7,566.4,75c7.2-432.1,224.7-813.2,554.6-1045.2
			c-77.6-17.6-236.8-36.9-458.1,21c-11.4,3.8-23.9,7.4-37.6,11.1c-10.8,2.9-21.5,6.1-32.2,9.3c-4.3,1.3-8.8,2.7-13.3,4.2
			c-323,101-549.5,316.6-700.6,620.2c-10.7,21.4-17.8,44.8-24.3,67.9C648.3,1537.1,695.1,1615,830.1,1641.8z"/>
		<path class="st1" d="M1423.1,712.9c10.7-3.2,21.4-6.4,32.2-9.3c13.7-3.8,26.2-7.4,37.6-11.1
			C1470.4,698.5,1447.2,705.1,1423.1,712.9z"/>
		<path class="st2" d="M1396.6,1716.8c121.9,8.7,244,12.7,366.6,12.7c0,0,0.6,0,1.6-0.1l1.2-0.1c50.2-4.5,764.3-70.1,1021.4-125
			c0,0,0-0.1,0.1-0.1c6.4-4.2,12.1-8.8,17.5-13.7c50.7-46.8,54.6-120.4,11.4-220.8c-146.7-340-398.6-567-758.7-666
			c-20.4-5.5-37.9-10.8-53.1-16.5c0,0-2-0.9-5.9-2.2c-7.9-2.7-24-8-47.6-13.3C1621.2,903.6,1403.8,1284.7,1396.6,1716.8z
			 M2347.1,1140.4c26.6-16.8,53.8-47.3,79.5-46.1c21.4,1,56.7,39.2,56.8,61.2c0.3,21.5-35.1,59.6-56.7,61
			c-25.4,1.6-52.9-28.3-79.7-44.7V1140.4z M2219.3,1053.4c-24.7,4.3-56.2-29.9-84.9-47.3c-0.4-11.3-0.9-22.5-1.4-33.8
			c27.2-19.4,56.1-55.9,81-53.5c27.6,2.9,51.6,41.5,77.1,64.6C2267.4,1008.3,2246.5,1048.6,2219.3,1053.4z M2094.1,1219.2
			c-2.2-25.4,35.3-54.1,55.4-81.4c10.8,0.4,21.8,0.7,32.7,1.2c18.1,28.6,53.8,60.1,49.6,85c-4.5,26.7-46.7,65.6-71.7,65.2
			C2136,1288.7,2096.3,1245.9,2094.1,1219.2z M1907.3,1019c2.3-23.1,35.6-54.5,60.1-59.7c15.6-3.3,54.9,32.7,56.7,53.3
			c2,23.9-25.9,50-53.2,96.3C1938.4,1065.7,1905.3,1040.5,1907.3,1019z"/>
		<path class="st0" d="M2426.6,1094.3c-25.7-1.2-52.9,29.3-79.5,46.1v31.4c26.7,16.3,54.2,46.3,79.7,44.7c21.5-1.4,57-39.5,56.7-61
			C2483.3,1133.5,2448,1095.3,2426.6,1094.3z"/>
		<path class="st0" d="M2219.3,1053.4c27.2-4.8,48.1-45.1,71.7-70c-25.4-23.1-49.4-61.7-77.1-64.6c-24.9-2.5-53.8,34.1-81,53.5
			c0.6,11.3,1,22.6,1.4,33.8C2163,1023.4,2194.6,1057.7,2219.3,1053.4z"/>
		<path class="st0" d="M2231.7,1224c4.2-24.9-31.5-56.4-49.6-85c-10.8-0.4-21.8-0.7-32.7-1.2c-20.1,27.3-57.5,55.9-55.4,81.4
			c2.2,26.7,41.9,69.5,65.9,70C2185,1289.6,2227.2,1250.7,2231.7,1224z"/>
		<path class="st0" d="M1967.4,959.3c-24.6,5.2-57.8,36.6-60.1,59.7c-2,21.5,31.1,46.7,63.6,89.9c27.3-46.3,55.2-72.4,53.2-96.3
			C2022.4,991.9,1983.1,955.9,1967.4,959.3z"/>
		<path class="st2" d="M1407.7,1912.4c12.6,94.7,35.3,186.2,67.1,273.4c96.6,7.4,193.6,11.7,290.9,13
			c304.3-4.2,604.7-41.2,901.5-108.7c101.6-23.1,155.7-90.4,181.9-184.5c17.1-61.3,4.9-116.2-54.5-149.8
			c-56.1-31.8-107.8-15.2-152.1,25.4c-44.4,40.8-87.2,83.1-128.2,127.1c-35,37.4-67.9,43.1-114.2,15.9
			c-180.3-105.7-182.7-106.5-341.8,34c-50.6,44.5-89.2,46-136.2,1.6c-22.6-21.4-48.4-39.5-74-57.7c-59.6-42.5-118.8-44.4-179.8-0.3
			C1530.6,2001.6,1521.3,2007.5,1407.7,1912.4z"/>
		<path class="st2" d="M1531.1,2317.3c27.2,54.9,58,107.6,92.5,157.7c333.1,19.4,663.4-12.7,988.8-92.7c25.7-6.4,70.3,0.6,81.5,17.5
			c12.3,18.5,6.6,67.9-10.1,83c-53.6,48.4-110,104.2-175.9,126.9c-210.8,72.6-429.1,108.3-662.8,114.2
			c69.5,60.3,145.4,113.5,226.7,158.2h0.1c114.5-12.7,229-32.5,343.6-59.4c23-5.2,46-11,69-16.9c269.6-79.8,367.9-272.9,403.3-388.9
			c0-10.6,2.6-22.7,8.2-36.9c2-4.9,3.6-10,4.9-15.2c2.7-13.6,4.3-24.1,5.4-31.2c0-1,0.1-1.9,0.3-2.7v-0.4c0.1-1.3,0.3-2.5,0.3-3.3
			c0.3-1.7,0.3-2.7,0.3-2.7c1-16.9,0.1-34-1.6-50c-6.9-62.4-47.3-96.9-109.6-87.7c-75.9,11.1-150.6,30.5-225.5,47.6
			C2224.6,2313,1878.1,2339.4,1531.1,2317.3z"/>
		<path class="st0" d="M1623.7,2475c62.9,92.1,137.5,175.8,221.5,248.9c233.8-5.9,452.1-41.6,662.8-114.2
			c65.9-22.7,122.3-78.5,175.9-126.9c16.8-15,22.4-64.5,10.1-83c-11.3-16.9-55.8-23.9-81.5-17.5
			C2287.1,2462.3,1956.7,2494.4,1623.7,2475z"/>
		<path class="st0" d="M2849,1905.6c-26.2,94.1-80.2,161.3-181.9,184.5c-296.8,67.5-597.2,104.5-901.5,108.7
			c-97.3-1.3-194.3-5.6-290.9-13c16.3,45.1,35.3,88.9,56.4,131.6c347,22.1,693.5-4.3,1039.4-83.1c74.9-17.1,149.6-36.4,225.5-47.6
			c62.3-9.1,102.6,25.3,109.6,87.7c1.7,16,2.6,33.1,1.6,50c0,0,0,1-0.3,2.7c0,0.9-0.1,2-0.3,3.3v0.4c-0.1,0.9-0.3,1.7-0.3,2.7
			c-1,7.1-2.6,17.6-5.4,31.2c-1.3,5.2-2.9,10.3-4.9,15.2c-5.6,14.2-8.2,26.3-8.2,36.9c-35.4,115.9-133.7,309.1-403.3,388.9
			c-23,5.9-46,11.7-69,16.9c-114.6,26.9-229.1,46.7-343.6,59.4c186.5,102.9,400.7,161.5,628.7,161.5
			c720.4,0,1304.4-584,1304.4-1304.4c0-720.4-584-1304.4-1304.4-1304.4c-278.9,0-537.5,87.6-749.6,236.8
			c23.6,5.3,39.6,10.6,47.6,13.3c3.9,1.3,5.9,2.2,5.9,2.2c15.2,5.6,32.7,11,53.1,16.5c360.1,99,611.9,326,758.7,666
			c43.2,100.3,39.3,173.9-11.4,220.8c-5.3,4.9-11.1,9.5-17.5,13.7c-0.1,0-0.1,0.1-0.1,0.1c-257,54.9-971.2,120.6-1021.4,125
			l-1.2,0.1c-1,0.1-1.6,0.1-1.6,0.1c-122.6,0-244.7-4-366.6-12.7c-0.3,7.5-0.3,14.9-0.3,22.4c0,58.7,3.9,116.5,11.4,173.2
			c113.6,95.1,122.9,89.2,260.5-10.6c61-44.1,120.3-42.2,179.8,0.3c25.6,18.2,51.5,36.3,74,57.7c47,44.4,85.6,42.9,136.2-1.6
			c159-140.5,161.5-139.6,341.8-34c46.3,27.2,79.2,21.5,114.2-15.9c41.1-43.9,83.8-86.3,128.2-127.1c44.2-40.6,96-57.2,152.1-25.4
			C2853.9,1789.4,2866.1,1844.3,2849,1905.6z"/>
	</g>
	<text transform="matrix(1 0 0 1 865.7613 3699.4167)" class="st2 st3 st4">S P A C E</text>
	<text transform="matrix(1 0 0 1 1116.2361 4109.5938)" class="st2 st3 st5">Buger &amp; Pizza</text>
	<path class="st2" d="M3289.6,994.4c-56.3,16.8-75.2,38-89.2,103.7c-1.9,9-14.7,9-16.7,0c-14-65.7-32.8-86.9-89.2-103.7
		c-8.1-2.4-8.1-13.9,0-16.3c56.3-16.8,75.2-38,89.2-103.7c1.9-9,14.7-9,16.7,0c14,65.7,32.8,86.9,89.2,103.7
		C3297.7,980.5,3297.7,991.9,3289.6,994.4z"/>
	<path class="st2" d="M3543.9,1297.3c-56.3,16.8-75.2,38-89.2,103.7c-1.9,9-14.7,9-16.7,0c-14-65.7-32.8-86.9-89.2-103.7
		c-8.1-2.4-8.1-13.9,0-16.3c56.3-16.8,75.2-38,89.2-103.7c1.9-9,14.7-9,16.7,0c14,65.7,32.8,86.9,89.2,103.7
		C3552,1283.4,3552,1294.9,3543.9,1297.3z"/>
	<path class="st2" d="M3289.6,1606.3c-56.3,16.8-75.2,38-89.2,103.7c-1.9,9-14.7,9-16.7,0c-14-65.7-32.8-86.9-89.2-103.7
		c-8.1-2.4-8.1-13.9,0-16.3c56.3-16.8,75.2-38,89.2-103.7c1.9-9,14.7-9,16.7,0c14,65.7,32.8,86.9,89.2,103.7
		C3297.7,1592.4,3297.7,1603.9,3289.6,1606.3z"/>
	<rect x="2359.9" y="4149.2" class="st6" width="8.2" height="8.2"/>
	<rect x="5456.4" y="2809.3" class="st6" width="8.2" height="0"/>
</g>
</svg>
